<svg width="26" height="31" viewBox="0 0 26 31" fill="none" xmlns="http://www.w3.org/2000/svg">
<g filter="url(#filter0_d_133_1136)">
<path d="M12.625 5.625C11.8092 5.625 11.0116 5.86693 10.3333 6.32019C9.65492 6.77345 9.12621 7.41769 8.814 8.17143C8.50179 8.92518 8.4201 9.75458 8.57926 10.5547C8.73843 11.3549 9.13129 12.0899 9.70818 12.6668C10.2851 13.2437 11.0201 13.6366 11.8203 13.7957C12.6204 13.9549 13.4498 13.8732 14.2036 13.561C14.9573 13.2488 15.6016 12.7201 16.0548 12.0417C16.5081 11.3634 16.75 10.5658 16.75 9.75C16.7488 8.65636 16.3138 7.60787 15.5404 6.83455C14.7671 6.06124 13.7186 5.62624 12.625 5.625ZM12.625 11.625C12.2542 11.625 11.8916 11.515 11.5833 11.309C11.275 11.103 11.0346 10.8101 10.8927 10.4675C10.7508 10.1249 10.7137 9.74792 10.786 9.3842C10.8584 9.02049 11.037 8.6864 11.2992 8.42417C11.5614 8.16195 11.8955 7.98337 12.2592 7.91103C12.6229 7.83868 12.9999 7.87581 13.3425 8.01772C13.6851 8.15964 13.978 8.39996 14.184 8.70831C14.39 9.01665 14.5 9.37916 14.5 9.75C14.5 10.2473 14.3025 10.7242 13.9508 11.0758C13.5992 11.4275 13.1223 11.625 12.625 11.625ZM12.625 1.125C10.3383 1.12748 8.14591 2.03698 6.52894 3.65394C4.91198 5.27091 4.00248 7.46327 4 9.75C4 17.0025 11.6538 22.4437 11.98 22.6716C12.1691 22.8039 12.3942 22.8748 12.625 22.8748C12.8558 22.8748 13.0809 22.8039 13.27 22.6716C14.7196 21.6032 16.0459 20.3769 17.2244 19.0153C19.8578 15.9909 21.25 12.7847 21.25 9.75C21.2475 7.46327 20.338 5.27091 18.7211 3.65394C17.1041 2.03698 14.9117 1.12748 12.625 1.125ZM15.5594 17.5041C14.6655 18.5308 13.6836 19.4776 12.625 20.3334C11.5664 19.4776 10.5845 18.5308 9.69062 17.5041C8.125 15.6909 6.25 12.8728 6.25 9.75C6.25 8.05924 6.92165 6.43774 8.11719 5.24219C9.31274 4.04665 10.9342 3.375 12.625 3.375C14.3158 3.375 15.9373 4.04665 17.1328 5.24219C18.3284 6.43774 19 8.05924 19 9.75C19 12.8728 17.125 15.6909 15.5594 17.5041Z" fill="#999999"/>
</g>
<defs>
<filter id="filter0_d_133_1136" x="-3.375" y="0" width="32" height="32" filterUnits="userSpaceOnUse" color-interpolation-filters="sRGB">
<feFlood flood-opacity="0" result="BackgroundImageFix"/>
<feColorMatrix in="SourceAlpha" type="matrix" values="0 0 0 0 0 0 0 0 0 0 0 0 0 0 0 0 0 0 127 0" result="hardAlpha"/>
<feOffset dy="4"/>
<feGaussianBlur stdDeviation="2"/>
<feComposite in2="hardAlpha" operator="out"/>
<feColorMatrix type="matrix" values="0 0 0 0 0 0 0 0 0 0 0 0 0 0 0 0 0 0 0.25 0"/>
<feBlend mode="normal" in2="BackgroundImageFix" result="effect1_dropShadow_133_1136"/>
<feBlend mode="normal" in="SourceGraphic" in2="effect1_dropShadow_133_1136" result="shape"/>
</filter>
</defs>
</svg>
